<?xml version="1.0" encoding="UTF-8"?>
<svg version="1.1" xmlns="http://www.w3.org/2000/svg" width="4267" height="4267">
<path d="M0 0 C1408.11 0 2816.22 0 4267 0 C4267 1408.11 4267 2816.22 4267 4267 C2858.89 4267 1450.78 4267 0 4267 C0 2858.89 0 1450.78 0 0 Z " fill="#B34427" transform="translate(0,0)"/>
<path d="M0 0 C1408.11 0 2816.22 0 4267 0 C4267 456.72 4267 913.44 4267 1384 C4250.17 1391.26 4233.34 1398.52 4216 1406 C4201.27027229 1412.61944548 4201.27027229 1412.61944548 4186.58935547 1419.34130859 C4183.06411477 1420.97037167 4179.53442149 1422.58943682 4176.00390625 1424.20703125 C4146.75237288 1437.64866398 4117.94119215 1451.98275357 4089.14515686 1466.36617661 C4087.02614188 1467.42444435 4084.90683214 1468.48211987 4082.78747559 1469.53970337 C4067.43970551 1477.20057444 4052.12657789 1484.90816174 4037 1493 C4035.78248863 1493.64854259 4034.5648819 1494.2969062 4033.34716797 1494.94506836 C4030.0411673 1496.70825295 4026.7385921 1498.47764472 4023.4375 1500.25 C4022.24650704 1500.88917207 4021.05550752 1501.52833189 4019.86450195 1502.16748047 C4018.03690907 1503.1483813 4016.20940211 1504.12944085 4014.38212585 1505.1109314 C4010.33540289 1507.28442739 4006.28551172 1509.45192477 4002.234375 1511.6171875 C3990.92670054 1517.67046923 3979.69063197 1523.82516621 3968.54614258 1530.17407227 C3961.70439409 1534.06313455 3954.8057098 1537.83459298 3947.875 1541.5625 C3937.78441319 1546.99701331 3927.81498962 1552.61605845 3917.88623047 1558.33984375 C3914.14263861 1560.49315323 3910.39154167 1562.63320387 3906.64022827 1564.77302551 C3884.42267113 1577.44644792 3862.26486359 1590.22175179 3840.18701172 1603.13720703 C3837.39981755 1604.76630857 3834.61097983 1606.39255564 3831.82144165 1608.01763916 C3818.26610163 1615.91698907 3804.78297647 1623.91821482 3791.39343262 1632.09570312 C3784.21137827 1636.47975396 3776.9981032 1640.77326075 3769.63354492 1644.84423828 C3763.85900306 1648.0454671 3758.20824081 1651.43871082 3752.5559082 1654.85009766 C3743.61950821 1660.2413199 3734.6432064 1665.56450356 3725.6652832 1670.88616943 C3718.6066666 1675.07030017 3711.55289397 1679.26180491 3704.51953125 1683.48828125 C3696.02628442 1688.59202611 3687.50311582 1693.644963 3678.97949219 1698.69775391 C3671.12071255 1703.35713196 3663.27139689 1708.03135384 3655.44007874 1712.73675537 C3649.28693689 1716.43214278 3643.11428724 1720.09428441 3636.9375 1723.75 C3635.76089393 1724.44667735 3634.58429912 1725.14337372 3633.40771484 1725.84008789 C3631.04624904 1727.23827334 3628.68458755 1728.6361274 3626.32275391 1730.03369141 C3623.34371804 1731.79659772 3620.3651784 1733.56033919 3617.38671875 1735.32421875 C3594.73542714 1748.73157737 3572.02217049 1762.02780732 3549.20605469 1775.15283203 C3545.9601453 1777.02296228 3542.71786718 1778.8992453 3539.4765625 1780.77734375 C3526.73659892 1788.1551137 3513.94380207 1795.42739151 3501.0859375 1802.59765625 C3496.14152754 1805.35635681 3491.21398061 1808.1435587 3486.29150391 1810.94116211 C3475.56757778 1817.0333429 3464.76456594 1822.96354359 3453.90625 1828.8125 C3449.14618982 1831.37656911 3444.40156394 1833.9675799 3439.66162109 1836.56860352 C3428.60813614 1842.6302879 3417.46063368 1848.4955303 3406.26757812 1854.29467773 C3403.83444002 1855.56451259 3401.40667111 1856.84256042 3398.98242188 1858.12915039 C3385.37714629 1865.34282893 3371.64670832 1872.29756327 3357.875 1879.1875 C3357.28327499 1879.48365707 3356.69154999 1879.77981415 3356.08189392 1880.08494568 C3337.83197329 1889.21628897 3319.51091656 1898.10692922 3300.82519531 1906.31396484 C3297.47573047 1907.78626302 3294.13727808 1909.28213012 3290.8008728 1910.78375244 C3259.65250221 1924.80045199 3228.01887479 1937.25734061 3195.81982422 1948.64453125 C3192.56221527 1949.79760303 3189.31289407 1950.97217629 3186.06640625 1952.15625 C3175.99868356 1955.80378055 3165.85074605 1958.80605406 3155.49609375 1961.53125 C3151.04035842 1962.70625089 3146.62340869 1963.98390028 3142.20727539 1965.29882812 C3114.99852674 1973.34543546 3084.41779188 1980.04247926 3055.92578125 1980.203125 C3054.66903595 1980.21371445 3054.66903595 1980.21371445 3053.38690186 1980.22451782 C3018.53440512 1980.45146094 3018.53440512 1980.45146094 3002 1977 C3001.0011377 1976.79600586 3000.00227539 1976.59201172 2998.97314453 1976.38183594 C2983.08695088 1973.07110788 2967.47751165 1968.86043582 2952 1964 C2951.36960815 1963.8027533 2950.73921631 1963.60550659 2950.08972168 1963.40228271 C2877.29289075 1940.57638359 2807.22585973 1906.81627119 2740 1871 C2738.97938477 1870.45746582 2737.95876953 1869.91493164 2736.90722656 1869.35595703 C2720.03525591 1860.38166363 2703.26161676 1851.23932378 2686.55078125 1841.96875 C2683.08817582 1840.04802686 2679.62229859 1838.13325325 2676.15625 1836.21875 C2652.35163292 1823.05376177 2628.78733763 1809.47795796 2605.23535156 1795.86767578 C2601.94776071 1793.96984375 2598.65781144 1792.07616129 2595.3671875 1790.18359375 C2582.40854169 1782.7275556 2569.4982306 1775.19695385 2556.64160156 1767.56640625 C2553.18665374 1765.51770521 2549.72739893 1763.47634423 2546.26806641 1761.43505859 C2541.51008686 1758.6266816 2536.75509307 1755.81326062 2532 1753 C2531.12154419 1752.48052795 2531.12154419 1752.48052795 2530.2253418 1751.95056152 C2525.60707495 1749.21954679 2520.99027077 1746.48607504 2516.375 1743.75 C2515.69373047 1743.34614075 2515.01246094 1742.94228149 2514.31054688 1742.52618408 C2504.12579304 1736.48499733 2493.99474387 1730.36074158 2483.8883667 1724.1895752 C2474.60497355 1718.52623065 2465.22011258 1713.05798931 2455.78100586 1707.65869141 C2447.84095888 1703.10146091 2439.998285 1698.39865775 2432.1875 1693.625 C2422.61823911 1687.77684993 2412.99897313 1682.02700035 2403.3125 1676.375 C2394.23523652 1671.07846758 2385.189191 1665.73709365 2376.1875 1660.3125 C2366.27144448 1654.34049906 2356.29704442 1648.47653882 2346.2890625 1642.66015625 C2341.84015788 1640.07425691 2337.39803914 1637.47716543 2332.9609375 1634.87109375 C2332.36137741 1634.51896317 2331.76181732 1634.16683258 2331.14408875 1633.80403137 C2329.92026219 1633.08521454 2328.69644122 1632.36638818 2327.47262573 1631.64755249 C2316.49616211 1625.20142058 2305.49350949 1618.80327288 2294.4597168 1612.45556641 C2288.26524925 1608.89030304 2282.08624542 1605.30033264 2275.92041016 1601.68579102 C2265.72215414 1595.70856796 2255.46147781 1589.85849635 2245.13549805 1584.10473633 C2238.64764012 1580.48879368 2232.18839787 1576.82817587 2225.75 1573.125 C2206.56800152 1562.11586191 2187.11995052 1551.57030221 2167.66015625 1541.0625 C2163.14266651 1538.62202587 2158.63659634 1536.1614365 2154.13427734 1533.69311523 C2131.05505165 1521.04980633 2107.76248578 1508.80793854 2084.3649292 1496.76565552 C2080.14723929 1494.59403658 2075.9355982 1492.41099565 2071.7265625 1490.22265625 C2048.78658036 1478.30116629 2025.72670812 1466.64180041 2002.35302734 1455.58886719 C1999.22884865 1454.10844234 1996.10830113 1452.62066925 1992.98858643 1451.13087463 C1973.33569411 1441.75065531 1953.56613079 1432.68240688 1933.63059998 1423.91918945 C1928.56229787 1421.69112299 1923.50192128 1419.44587011 1918.4453125 1417.19140625 C1843.91303981 1383.99956613 1767.40677525 1355.8078541 1689.7416687 1330.88085938 C1687.86908893 1330.27922598 1685.99697757 1329.67613318 1684.12527466 1329.07177734 C1673.36789207 1325.59837601 1662.63491697 1322.20390741 1651.6875 1319.375 C1644.40328834 1317.45640269 1637.14710203 1315.49531735 1629.9375 1313.3125 C1623.86225085 1311.48098028 1617.75814891 1309.94801806 1611.56959534 1308.54969788 C1606.52556005 1307.39703247 1601.5558585 1306.06275514 1596.58203125 1304.640625 C1587.4863048 1302.08190972 1578.33526806 1299.85419101 1569.125 1297.75 C1568.30218536 1297.56124298 1567.47937073 1297.37248596 1566.63162231 1297.17800903 C1493.77361381 1280.50350728 1419.91631691 1268.31581123 1345.40576172 1262.29541016 C1342.80253991 1262.06961099 1340.22082634 1261.80375256 1337.62890625 1261.48046875 C1330.12514629 1260.6027374 1322.54216123 1260.38531097 1315 1260 C1312.59615692 1259.87499821 1310.19235559 1259.74922962 1307.78857422 1259.62304688 C1306.30456871 1259.5453793 1304.82052389 1259.46845579 1303.33642578 1259.39257812 C1302.62599121 1259.35583984 1301.91555664 1259.31910156 1301.18359375 1259.28125 C1300.40220535 1259.24102722 1299.62081696 1259.20080444 1298.81575012 1259.15936279 C1296.6531012 1259.03696352 1294.49135347 1258.89855751 1292.3301239 1258.75323486 C1281.19996628 1258.01498794 1270.10955991 1257.82231502 1258.95703125 1257.796875 C1257.04368567 1257.78980953 1255.13034034 1257.78267686 1253.21699524 1257.77548218 C1247.08215984 1257.75582935 1240.94736388 1257.75078665 1234.8125 1257.75 C1233.76331139 1257.74970543 1232.71412277 1257.74941086 1231.63314056 1257.74910736 C1154.24173862 1257.74559926 1076.89648939 1262.36601093 1000.47265625 1275.10546875 C995.26361685 1275.97044513 990.04310263 1276.71645544 984.8125 1277.4375 C950.85478381 1282.18205174 917.36079037 1288.99531373 883.94006348 1296.56121826 C881.24968512 1297.16969778 878.5584123 1297.774183 875.8671875 1298.37890625 C871.53615553 1299.35465834 867.20791422 1300.34204379 862.88134766 1301.33740234 C860.79019575 1301.81828578 858.69867557 1302.29756865 856.60693359 1302.77587891 C834.18961738 1307.90813058 811.75526921 1313.10262255 789.79052734 1319.95922852 C784.59375712 1321.57403432 779.36094333 1322.92357804 774.0769043 1324.22314453 C769.1419671 1325.46911535 764.258989 1326.88152233 759.375 1328.3125 C758.33593506 1328.61591309 757.29687012 1328.91932617 756.22631836 1329.23193359 C749.32365808 1331.26659182 742.47128987 1333.41486143 735.67529297 1335.7824707 C730.82633658 1337.45526824 725.92402902 1338.91749238 721 1340.3515625 C712.43445395 1342.85001748 703.92494605 1345.49843266 695.4375 1348.25 C694.27973053 1348.62532867 694.27973053 1348.62532867 693.09857178 1349.00823975 C607.44180657 1376.86723804 523.7584853 1411.29721889 442 1449 C440.93673492 1449.48956177 440.93673492 1449.48956177 439.85198975 1449.98901367 C423.11279797 1457.69704449 406.47786789 1465.61517095 389.8984375 1473.66015625 C385.64028241 1475.7257319 381.37665981 1477.77832119 377.1015625 1479.80859375 C363.53070916 1486.25810821 350.06739987 1492.91273832 336.625 1499.625 C335.74325104 1500.06458038 334.86150208 1500.50416077 333.95303345 1500.95706177 C323.01199449 1506.41489986 312.14213304 1511.98932817 301.3359375 1517.70947266 C296.52500126 1520.25576599 291.68982476 1522.75279505 286.85083008 1525.24536133 C276.7342599 1530.45706974 266.67918535 1535.7592689 256.70874023 1541.24511719 C249.13347744 1545.40505029 241.50573466 1549.46121161 233.86761475 1553.50405884 C222.65759429 1559.4379868 211.4841658 1565.42077959 200.42871094 1571.63916016 C196.39898486 1573.8970706 192.35626976 1576.1315379 188.31591797 1578.37036133 C157.77086363 1595.29870755 127.47139243 1612.65944329 97.23535156 1630.13232422 C93.94776071 1632.03015625 90.65781144 1633.92383871 87.3671875 1635.81640625 C76.39345226 1642.13040532 65.44327906 1648.4792289 54.5534668 1654.93701172 C49.2808436 1658.06332901 44.0007832 1661.17637871 38.7109375 1664.2734375 C38.08250946 1664.64137924 37.45408142 1665.00932098 36.80661011 1665.38841248 C34.26206113 1666.87791693 31.71733006 1668.36710846 29.17205811 1669.8553772 C20.88512482 1674.70146172 12.63156003 1679.59476687 4.45703125 1684.62890625 C2 1686 2 1686 0 1686 C0 1129.62 0 573.24 0 0 Z " fill="#E5D1BB" transform="translate(0,0)"/>
<path d="M0 0 C2.07329333 -0.00217124 4.14603961 -0.02034296 6.21923828 -0.03930664 C15.47927192 -0.07878978 24.31180838 0.73224623 33.47314453 2.18530273 C34.44445313 2.33136963 35.41576172 2.47743652 36.41650391 2.62792969 C62.1965201 6.5939073 86.8198356 13.85553884 111.47314453 22.18530273 C112.71950684 22.60408691 113.96586914 23.02287109 115.25 23.4543457 C147.74769771 34.44903745 179.31102342 47.87598352 210.47314453 62.18530273 C211.59872269 62.70215637 212.72430084 63.21901001 213.88398743 63.75152588 C232.37646332 72.26720607 250.6748905 81.12515197 268.87158203 90.25415039 C272.30809893 91.97814661 275.74824597 93.6947597 279.18934536 95.40958691 C294.36038243 102.97378195 309.39470952 110.72266987 324.22320557 118.94433594 C329.58437683 121.90132083 335.00461455 124.74899115 340.41064453 127.62280273 C350.91389105 133.22326956 361.30994324 138.99347839 371.65283203 144.88452148 C377.96045189 148.47363692 384.310394 151.98484962 390.66064453 155.49780273 C411.79103116 167.20747035 432.71246196 179.27438831 453.55957031 191.48071289 C457.44042226 193.75120965 461.32531051 196.01474981 465.21020508 198.27832031 C470.29958201 201.24435107 475.38642394 204.21471938 480.47314453 207.18530273 C481.03880127 207.51550415 481.60445801 207.84570557 482.18725586 208.18591309 C496.68264872 216.64775697 511.14613675 225.15595029 525.52734375 233.81103516 C532.01374802 237.71394173 538.51501171 241.58986352 545.03564453 245.43530273 C554.12671744 250.79730716 563.20952247 256.17303807 572.28564453 261.56030273 C573.31570618 262.17169601 573.31570618 262.17169601 574.36657715 262.79544067 C584.37113728 268.73515243 594.35570842 274.70705462 604.32763672 280.70141602 C614.53821674 286.83466085 624.78769771 292.9016235 635.03857422 298.9671936 C641.6019149 302.85171911 648.15846365 306.74767152 654.71539307 310.64300537 C677.59099084 324.23186175 700.50787513 337.74856511 723.47314453 351.18530273 C724.53355957 351.8058252 725.59397461 352.42634766 726.68652344 353.06567383 C740.06337278 360.89003003 753.4698962 368.66179914 766.89892578 376.39624023 C771.27467145 378.91653456 775.64688708 381.44278609 780.01611328 383.97436523 C792.74980237 391.3478048 805.53597809 398.61639464 818.38720703 405.78295898 C823.33193417 408.54183651 828.25977578 411.32925676 833.18261719 414.12695312 C843.01119998 419.71072526 852.90220988 425.16347237 862.85327148 430.52587891 C868.66849633 433.6605043 874.45925345 436.83238976 880.22314453 440.06030273 C891.89567783 446.57969983 903.70191161 452.85265977 915.50262451 459.13592529 C917.49978303 460.19948876 919.49649265 461.26389155 921.49316406 462.32836914 C966.59247819 486.36174672 1011.9609858 510.2514068 1058.47705078 531.43530273 C1063.50331398 533.72431536 1068.47812834 536.10631958 1073.44384766 538.5234375 C1089.85960622 546.51302212 1106.54867409 553.86459299 1123.25909424 561.21075439 C1126.05459499 562.44123711 1128.84772582 563.67703838 1131.64082336 564.91296387 C1207.36506397 598.40542632 1285.98167717 631.06511868 1366.11914062 652.42822266 C1371.86455339 653.96952575 1377.50547625 655.78034118 1383.16064453 657.62280273 C1393.66190283 661.02901563 1404.27375809 663.84592417 1414.97412109 666.55053711 C1418.25141265 667.38298709 1421.51921164 668.24879121 1424.78564453 669.12280273 C1425.96255859 669.43604492 1427.13947266 669.74928711 1428.35205078 670.07202148 C1431.55272423 670.93073875 1434.74553351 671.81607806 1437.93798828 672.70483398 C1454.07987315 677.16771923 1470.31937045 681.01655547 1486.66114807 684.65969849 C1491.11258841 685.65260802 1495.55968542 686.66218573 1500.00325012 687.6897583 C1523.55838451 693.1330676 1547.24976465 697.5826703 1571.05966187 701.7590332 C1573.39567393 702.17161987 1575.73012665 702.59202742 1578.06420898 703.01538086 C1586.77927398 704.59057099 1595.49885107 705.94256549 1604.28564453 707.06030273 C1606.91211863 707.40019154 1609.53844979 707.74099783 1612.16455078 708.08374023 C1612.84065399 708.17173889 1613.5167572 708.25973755 1614.21334839 708.35040283 C1619.12806211 708.99518126 1624.03369107 709.69248254 1628.93798828 710.41186523 C1650.56773974 713.56795945 1672.21385244 715.87453143 1693.98779297 717.78735352 C1697.63329017 718.10818695 1701.27614213 718.45103407 1704.91845703 718.80639648 C1741.72547367 722.30340751 1778.79955305 722.59140601 1815.73985672 722.5628624 C1819.28042126 722.56026065 1822.8209765 722.56092673 1826.36154175 722.56167603 C1862.91583468 722.55272407 1899.150081 721.56393087 1935.57543945 718.42877197 C1939.81498894 718.07255909 1944.05781063 717.76791637 1948.30126953 717.46264648 C1992.16136949 714.2192222 2036.35473792 708.80817041 2079.55126953 700.49780273 C2086.72082336 699.1214486 2093.91063012 697.87462013 2101.10342407 696.62722778 C2136.45359936 690.48085429 2171.48193478 682.88563753 2206.34814453 674.43530273 C2207.49429733 674.1584816 2207.49429733 674.1584816 2208.66360474 673.87606812 C2217.21765693 671.80507242 2225.7011929 669.59108867 2234.15380859 667.13208008 C2240.57458116 665.30067702 2247.05942951 663.70798999 2253.53759766 662.09350586 C2263.90349889 659.45412612 2274.1025442 656.30661607 2284.32223511 653.15548706 C2287.47862927 652.18361395 2290.63682174 651.21782219 2293.7956543 650.25390625 C2371.38494502 626.56743816 2447.59652488 599.66954049 2522.34637451 568.08392334 C2524.31532774 567.2519848 2526.28499642 566.42176694 2528.25488281 565.59204102 C2536.35054958 562.17548976 2544.42023254 558.7013629 2552.47314453 555.18530273 C2553.25109375 554.84563477 2554.02904297 554.5059668 2554.83056641 554.15600586 C2577.25641992 544.35661898 2599.60292282 534.42172778 2621.72558594 523.95385742 C2625.79516403 522.03022396 2629.87440126 520.12746061 2633.95361328 518.22436523 C2648.17356058 511.5827358 2662.32519809 504.8467826 2676.3347168 497.76928711 C2683.23204358 494.28783608 2690.17514097 490.92335825 2697.16064453 487.62280273 C2705.90193198 483.48393557 2714.49526185 479.10838619 2723.05102539 474.59960938 C2729.23774208 471.34096515 2735.45836412 468.16604603 2741.72314453 465.06030273 C2759.01591676 456.46730507 2775.98476053 447.25361396 2792.99681091 438.121521 C2797.15224777 435.89170194 2801.31172621 433.66957155 2805.47314453 431.45092773 C2821.02538655 423.15384492 2836.49104849 414.71357461 2851.90478516 406.1628418 C2855.41912879 404.2139175 2858.93818271 402.27363354 2862.45751953 400.33374023 C2874.19849139 393.85135378 2885.85580996 387.25432307 2897.41577148 380.4543457 C2904.87239147 376.08197392 2912.40508522 371.86137756 2919.97314453 367.68530273 C2930.55817528 361.84113065 2941.03136937 355.83106761 2951.45751953 349.70874023 C2957.71136731 346.03711317 2963.99797395 342.42359229 2970.28564453 338.81030273 C2980.27202613 333.06314161 2990.20023735 327.22338481 3000.10546875 321.33764648 C3008.21309204 316.52090996 3016.33259148 311.7250573 3024.46591187 306.95184326 C3025.75186354 306.19700123 3027.03753334 305.44167879 3028.32290649 304.68585205 C3030.11049791 303.63487274 3031.89908936 302.58561708 3033.68798828 301.53686523 C3034.71013428 300.93696777 3035.73228027 300.33707031 3036.78540039 299.71899414 C3038.97526636 298.46940399 3041.21801908 297.31286546 3043.47314453 296.18530273 C3043.47314453 779.30530273 3043.47314453 1262.42530273 3043.47314453 1760.18530273 C1635.36314453 1760.18530273 227.25314453 1760.18530273 -1223.52685547 1760.18530273 C-1223.52685547 1376.72530273 -1223.52685547 993.26530273 -1223.52685547 598.18530273 C-1211.97685547 593.23530273 -1200.42685547 588.28530273 -1188.52685547 583.18530273 C-1181.47761028 580.11788925 -1174.43160928 577.04659672 -1167.40185547 573.93530273 C-1166.08450409 573.35267166 -1166.08450409 573.35267166 -1164.74053955 572.75827026 C-1121.98678809 553.82834256 -1079.98263606 533.43769423 -1038.15185547 512.56030273 C-1037.15386932 512.0626944 -1036.15588318 511.56508606 -1035.12765503 511.05239868 C-1022.92254222 504.96228449 -1010.78812559 498.75815752 -998.74133301 492.36047363 C-995.88036909 490.84222769 -993.01531496 489.33179878 -990.1502533 487.82130432 C-968.01726252 476.14906067 -945.91365892 464.43769084 -924.16650391 452.05688477 C-917.35782049 448.19026807 -910.48925623 444.44874009 -903.58935547 440.74780273 C-894.35378623 435.78762628 -885.27866235 430.59467326 -876.24584961 425.27539062 C-870.06018479 421.63988946 -863.83078736 418.11127014 -857.52685547 414.68530273 C-848.17371785 409.59535111 -838.98485767 404.24405347 -829.80029297 398.85717773 C-823.39438556 395.10081309 -816.96264265 391.39017441 -810.52685547 387.68530273 C-791.68327331 376.82814423 -772.91313177 365.84933138 -754.20068359 354.76782227 C-751.59693458 353.22677943 -748.99186987 351.68799049 -746.38623047 350.15014648 C-740.76432526 346.83210141 -735.14523642 343.50931126 -729.52685547 340.18530273 C-728.94121826 339.83898804 -728.35558105 339.49267334 -727.75219727 339.13586426 C-712.79646015 330.29178058 -697.86128735 321.41919929 -683.02685547 312.37280273 C-673.70432854 306.68839852 -664.32705821 301.10993961 -654.88208008 295.63110352 C-646.42131659 290.71983872 -637.99989818 285.74440025 -629.58935547 280.74780273 C-628.56320633 280.13829773 -628.56320633 280.13829773 -627.5163269 279.51647949 C-618.60833033 274.22366315 -609.71760549 268.90289661 -600.83935547 263.56030273 C-590.03728028 257.06132916 -579.17020431 250.67740613 -568.28817749 244.31370544 C-567.68889435 243.96324661 -567.08961121 243.61278778 -566.47216797 243.25170898 C-565.87828278 242.90443253 -565.28439758 242.55715607 -564.67251587 242.19935608 C-559.17582031 238.98342676 -553.69378855 235.74302506 -548.21435547 232.49780273 C-511.6451542 210.85747562 -474.81326508 189.63392496 -437.69384766 168.95043945 C-434.42071296 167.12614375 -431.1495782 165.29829234 -427.87841797 163.47045898 C-413.10052203 155.22401763 -398.25621571 147.1108711 -383.32519531 139.14501953 C-381.46227131 138.15083622 -379.60001181 137.15541557 -377.73779297 136.15991211 C-344.68480863 118.50108442 -311.45488951 101.11160578 -277.52685547 85.18530273 C-276.84592834 84.86493042 -276.16500122 84.54455811 -275.46343994 84.21447754 C-222.92216149 59.5054972 -168.57827351 35.76782527 -112.52685547 20.18530273 C-111.31707031 19.84402344 -110.10728516 19.50274414 -108.86083984 19.15112305 C-80.28821553 11.09567327 -51.94487893 5.13713073 -22.52685547 1.18530273 C-21.71651855 1.06823975 -20.90618164 0.95117676 -20.07128906 0.83056641 C-13.4104916 -0.04923547 -6.70772215 -0.00078233 0 0 Z " fill="#E5D1BB" transform="translate(1223.52685546875,2506.814697265625)"/>
<path d="M0 0 C3.07014134 -0.00282985 6.14027001 -0.00835406 9.21040726 -0.01401138 C31.57294516 -0.04404683 53.7624444 0.34703829 76.06096268 2.09191513 C80.97136968 2.43479004 85.88460769 2.59322849 90.8038826 2.74712753 C101.97177418 3.1730006 113.02944624 4.34713427 124.13591385 5.55962753 C129.30563577 6.12190177 134.47419023 6.61081636 139.65739822 7.02862167 C207.42401666 12.4946566 274.91093137 25.44957313 341.0538826 40.80962753 C342.03791061 41.03710678 343.02193863 41.26458603 344.03578568 41.49895859 C357.41256632 44.59752463 370.67793918 47.99249671 383.90457535 51.67956161 C387.07364245 52.55750859 390.25034746 53.40412788 393.4288826 54.24712753 C394.59806229 54.55908066 395.76724197 54.87103378 396.97185135 55.19244003 C399.31005662 55.81510474 401.64939047 56.43303675 403.98991776 57.04693222 C418.02881236 60.73106916 431.9052444 64.69159485 445.70329666 69.18999863 C449.79999093 70.50971202 453.90662487 71.7957931 458.0148201 73.07915878 C544.91251914 100.26125446 629.77085143 132.93521361 712.62712479 170.6934166 C715.83806939 172.15454206 719.05273062 173.60701301 722.2688179 175.05675888 C742.35260944 184.11630931 762.21156858 193.58627461 781.9928627 203.28698349 C788.0125078 206.23613399 794.05925685 209.12577917 800.1163826 211.99712753 C817.88946246 220.4514555 835.53933845 229.22495834 852.91691971 238.46660995 C857.59677454 240.95531006 862.29372144 243.40829413 867.0070076 245.83306503 C867.61245407 246.14459015 868.21790054 246.45611526 868.84169388 246.77708054 C869.45618393 247.09324829 870.07067398 247.40941605 870.70378494 247.73516464 C881.44540303 253.26228867 892.14012404 258.85562875 902.72331619 264.68243027 C907.92777615 267.54502578 913.15038968 270.36998024 918.3976326 273.15337753 C919.02592468 273.48666061 919.65421677 273.8199437 920.301548 274.16332626 C921.59013663 274.8466955 922.87874665 275.5300244 924.16737747 276.21331406 C934.81185835 281.85948072 945.37688427 287.61257698 955.84099197 293.58892441 C962.54600618 297.41158579 969.31463878 301.09978377 976.1163826 304.74712753 C985.18518064 309.61915947 994.09870066 314.71262898 1002.96770096 319.93828964 C1010.47379039 324.34873321 1018.05587868 328.60491847 1025.6788826 332.80962753 C1036.25736323 338.64992448 1046.7239717 344.65628449 1057.14372635 350.77447128 C1063.50885762 354.51136549 1069.90558761 358.19240118 1076.3038826 361.87212753 C1085.11763878 366.94699009 1093.89933454 372.07151712 1102.64690018 377.2595787 C1107.79472022 380.31203865 1112.94992506 383.35131675 1118.1163826 386.37212753 C1119.01625145 386.89832184 1119.01625145 386.89832184 1119.93429947 387.43514633 C1121.16494434 388.15472355 1122.39559113 388.87429749 1123.62623978 389.59386826 C1134.37018896 395.87706658 1145.07144921 402.22472526 1155.73161697 408.64947128 C1163.61464945 413.39227106 1171.54584449 418.04779477 1179.4913826 422.68462753 C1189.69464063 428.63968891 1199.82217371 434.70652623 1209.90471268 440.86352158 C1220.19171588 447.14205795 1230.56034192 453.27267159 1240.97380447 459.33892441 C1247.50044788 463.14330523 1254.00014695 466.98759953 1260.47357559 470.88151169 C1267.44209812 475.07301537 1274.43487946 479.2233264 1281.4288826 483.37212753 C1282.82968777 484.20333209 1284.23048514 485.0345498 1285.63127518 485.86577988 C1288.46357207 487.54635665 1291.29602981 489.22666192 1294.12858963 490.9067955 C1296.6898116 492.42606426 1299.25073151 493.94583902 1301.81120682 495.46636581 C1324.7042032 509.06122344 1347.64121416 522.57697618 1370.71989822 535.85454941 C1376.91385378 539.41938866 1383.09230132 543.00900919 1389.25749588 546.62334824 C1401.43041192 553.75758139 1413.70486642 560.69393361 1426.03337479 567.555233 C1429.18218379 569.31146876 1432.32585227 571.07656348 1435.4679451 572.84478378 C1447.70637544 579.72913877 1459.99780642 586.50291593 1472.3585701 593.16509628 C1476.12226159 595.19424405 1479.87766523 597.23724946 1483.6241951 599.29790878 C1495.91432258 606.05524433 1508.31519187 612.57269237 1520.7804451 619.00103378 C1525.36901337 621.36825954 1529.94217651 623.7615999 1534.50212479 626.18340683 C1554.84030855 636.9800288 1575.52079903 647.02523147 1596.45817947 656.60308456 C1599.62587824 658.05339535 1602.78663381 659.51827174 1605.94615555 660.98629379 C1634.01442416 674.01627924 1662.50449886 685.98913957 1691.6163826 696.49712753 C1692.3429808 696.75971359 1693.06957901 697.02229965 1693.81819534 697.29284286 C1717.20840538 705.71111422 1741.15833029 712.79532987 1765.4288826 718.18462753 C1766.27072098 718.37540878 1767.11255936 718.56619003 1767.97990799 718.76275253 C1783.03089011 721.97331852 1798.02749189 722.68681718 1813.3663826 722.62212753 C1814.26851486 722.62030472 1815.17064713 722.6184819 1816.10011673 722.61660385 C1828.70909711 722.57378969 1841.01051106 722.16181659 1853.43327713 719.82329941 C1856.64319888 719.22275918 1859.86099418 718.68023679 1863.08122635 718.13775253 C1883.44885141 714.66267527 1903.10764146 710.24110365 1922.8910408 704.28911972 C1925.26968933 703.58048841 1927.64991284 702.88321216 1930.03508377 702.19732285 C1940.91166307 699.06013602 1951.65467629 695.59387036 1962.3663826 691.93462753 C1963.68439865 691.48493103 1963.68439865 691.48493103 1965.02904129 691.02614975 C2019.29097732 672.44562119 2071.79858551 648.70199121 2123.1788826 623.30962753 C2124.10446976 622.85231247 2125.03005692 622.39499741 2125.98369217 621.92382431 C2132.2326726 618.834269 2138.47686083 615.73521028 2144.71693802 612.62771225 C2146.77490075 611.60306812 2148.83341058 610.5795219 2150.89253616 609.55721664 C2163.53833375 603.27372565 2176.01598245 596.75004205 2188.38566971 589.93902206 C2193.74765879 586.98760553 2199.16812837 584.16046146 2204.6163826 581.37212753 C2213.35373727 576.85616614 2221.93810058 572.11395439 2230.47893143 567.23785019 C2237.36985846 563.31003933 2244.31783379 559.5028507 2251.3038826 555.74712753 C2261.39174277 550.31439366 2271.35804305 544.69654357 2281.28386307 538.97417831 C2284.47493694 537.13940503 2287.67201967 535.31542233 2290.87028885 533.49322128 C2303.03020005 526.56490962 2315.16477323 519.59712784 2327.24284744 512.52666855 C2333.42438068 508.90959614 2339.6230811 505.32414459 2345.8339119 501.75762558 C2356.48481524 495.6395946 2367.06301868 489.41689645 2377.57976151 483.07110214 C2385.51160915 478.29108446 2393.49265812 473.60130478 2401.4913826 468.93462753 C2411.21743018 463.25888676 2420.87953797 457.48913433 2430.4913826 451.62212753 C2439.86835648 445.89940958 2449.2977531 440.28005132 2458.80095291 434.76910019 C2467.47982973 429.73202134 2476.11470223 424.62288178 2484.7413826 419.49712753 C2485.40271194 419.10438644 2486.06404129 418.71164536 2486.74541092 418.30700302 C2493.73670056 414.15446728 2500.72002577 409.989034 2507.69060135 405.80181503 C2515.25490992 401.25803877 2522.83960446 396.74904227 2530.4288826 392.24712753 C2531.82968777 391.41592297 2533.23048514 390.58470526 2534.63127518 389.75347519 C2537.46357207 388.07289841 2540.29602981 386.39259315 2543.12858963 384.71245956 C2545.6898116 383.19319081 2548.25073151 381.67341604 2550.81120682 380.15288925 C2564.01993877 372.30896933 2577.24683107 364.49749125 2590.50667191 356.74035263 C2597.08378925 352.892668 2603.65475218 349.03555892 2610.2023201 345.13775253 C2610.77264465 344.79827591 2611.34296921 344.45879929 2611.93057632 344.10903549 C2612.49744659 343.77159317 2613.06431686 343.43415085 2613.64836502 343.086483 C2623.93132464 336.96639334 2634.25974173 330.95048737 2644.69694901 325.09722519 C2651.48627948 321.28490863 2658.21550014 317.37891854 2664.9288826 313.43462753 C2675.71716794 307.10574704 2686.63024132 301.01876165 2697.5773201 294.96978378 C2703.69866589 291.58477757 2709.78577841 288.14212329 2715.8663826 284.68462753 C2724.58616267 279.73262571 2733.37828565 274.92856964 2742.2101326 270.17974472 C2748.98582938 266.52674131 2755.68643573 262.75932293 2762.3663826 258.93462753 C2774.68221455 251.9038939 2787.28624451 245.45697691 2799.90446854 238.99322128 C2804.3029753 236.73165681 2808.68106886 234.43286196 2813.0538826 232.12212753 C2816.09509345 230.51709578 2819.13695872 228.91330741 2822.1788826 227.30962753 C2822.95385086 226.90053146 2823.72881912 226.49143539 2824.52727127 226.06994247 C2841.05175228 217.3582084 2857.72082131 208.94477704 2874.42863846 200.59209824 C2877.37957614 199.11666996 2880.32908357 197.63844344 2883.27727127 196.15752792 C2901.45814015 187.02572423 2919.7139583 178.14130857 2938.21376419 169.67141342 C2942.39424866 167.75144802 2946.55817088 165.796934 2950.72185135 163.84087753 C2969.23848133 155.17775722 2987.89336472 146.87364116 3006.6788826 138.80962753 C3007.75439377 138.3466124 3008.82990494 137.88359726 3009.93800735 137.40655136 C3013.00566531 136.08773579 3016.076038 134.77549445 3019.1476326 133.46587753 C3020.05950836 133.07400253 3020.97138412 132.68212753 3021.91089249 132.27837753 C3023.19500267 131.73407089 3023.19500267 131.73407089 3024.50505447 131.17876816 C3025.24235794 130.86443832 3025.97966141 130.55010849 3026.7393074 130.22625351 C3029.82217577 129.06792183 3033.01229801 128.21436599 3036.1788826 127.30962753 C3036.1788826 278.77962753 3036.1788826 430.24962753 3036.1788826 586.30962753 C3011.31691983 599.87069813 3011.31691983 599.87069813 2999.67583084 605.79281235 C2987.02583815 612.23399314 2974.47965889 618.83517592 2962.06120682 625.71392441 C2958.82343537 627.50640909 2955.58146102 629.29120162 2952.33903885 631.07525253 C2945.55058679 634.81183367 2938.76813872 638.55921487 2931.98735428 642.30968857 C2930.22632419 643.28339616 2928.46481695 644.25624063 2926.70329666 645.22906113 C2911.21860853 653.78286884 2895.81565994 662.47033 2880.47269058 671.27489853 C2876.33046964 673.65140313 2872.18366203 676.01974452 2868.03435135 678.38384628 C2853.02913378 686.93516815 2838.07870884 695.57572442 2823.1788826 704.30962753 C2821.46425762 705.31402069 2819.74963233 706.31841329 2818.03499222 707.32278061 C2812.56882269 710.52483516 2807.10393153 713.72906244 2801.6398201 716.93462753 C2796.6263464 719.87581373 2791.61047818 722.81287238 2786.5929451 725.74712753 C2775.37882573 732.30682843 2764.17243463 738.87598175 2753.04582596 745.58355331 C2747.98342159 748.63336695 2742.90846028 751.66105652 2737.82341385 754.67290878 C2736.83951675 755.25572113 2736.83951675 755.25572113 2735.83574295 755.85030746 C2734.47553986 756.65597158 2733.11533062 757.46162531 2731.75511551 758.26726913 C2720.79451055 764.75979317 2709.86639465 771.29971121 2698.9913826 777.93462753 C2688.49903589 784.3341425 2677.93247606 790.59559365 2667.31926346 796.79229355 C2658.20739271 802.11316487 2649.1236603 807.47983087 2640.0538826 812.87212753 C2639.38419449 813.27020615 2638.71450638 813.66828476 2638.02452469 814.07842636 C2635.35061297 815.66790532 2632.67677917 817.25751513 2630.00313187 818.84743881 C2619.06988758 825.34861197 2608.12429827 831.82897383 2597.1788826 838.30962753 C2596.24495682 838.86279648 2595.31103104 839.41596542 2594.34880447 839.98589706 C2552.88352044 864.54163231 2511.17791997 888.67755789 2469.1788826 912.30962753 C2468.20451248 912.85796249 2467.23014236 913.40629745 2466.22624588 913.97124863 C2433.51884921 932.36352599 2400.63717624 950.38767324 2367.32512283 967.66485214 C2365.01464129 968.87271388 2362.71025451 970.08945478 2360.40959549 971.31573105 C2346.08883308 978.93261789 2331.59276804 986.19642974 2317.08537674 993.44903183 C2314.20410026 994.88962962 2311.32424557 996.33300688 2308.4457283 997.77910995 C2289.50360774 1007.294441 2270.46906864 1016.51725694 2251.1788826 1025.30962753 C2249.49584877 1026.08003268 2247.81282383 1026.85045726 2246.12981033 1027.62090683 C2241.79995948 1029.59752901 2237.46110601 1031.55343387 2233.1163826 1033.49712753 C2232.34559372 1033.8421431 2231.57480484 1034.18715866 2230.78065872 1034.54262924 C2201.28996699 1047.71767705 2171.46845474 1060.19594767 2141.22459793 1071.54198837 C2139.04967438 1072.35811194 2136.87576321 1073.17690025 2134.70183182 1073.99566269 C2117.6835448 1080.39544478 2100.61567848 1086.62059463 2083.3663826 1092.37212753 C2082.71421768 1092.5901503 2082.06205276 1092.80817307 2081.39012527 1093.03280258 C2072.07782517 1096.13586426 2062.70350885 1098.96885452 2053.27693558 1101.69979477 C2051.25459612 1102.28762018 2049.2343375 1102.88202896 2047.21477127 1103.47930527 C2015.28236154 1112.91707036 1983.13824142 1120.97764819 1950.4288826 1127.24712753 C1949.46389847 1127.4327626 1948.49891434 1127.61839767 1947.50468826 1127.80965805 C1929.14206183 1131.31930492 1910.69738493 1134.01993196 1892.1241951 1136.13506699 C1890.07135311 1136.37012708 1888.01969801 1136.61409453 1885.9679451 1136.85845566 C1861.21711334 1139.74643812 1836.57142278 1140.68686477 1811.6788826 1140.62212753 C1810.16427492 1140.61990412 1808.64966717 1140.61772765 1807.13505936 1140.61559677 C1785.35348697 1140.57315249 1763.80132772 1140.21874219 1742.1788826 1137.30962753 C1741.41922195 1137.2101683 1740.65956131 1137.11070908 1739.87688065 1137.00823593 C1700.61202228 1131.86579587 1662.401579 1123.59559143 1624.1788826 1113.30962753 C1622.97167557 1112.98494492 1621.76446854 1112.6602623 1620.52067947 1112.32574081 C1601.49431417 1107.13700118 1582.83461527 1100.68091232 1564.1788826 1094.30962753 C1563.4504213 1094.06150314 1562.72195999 1093.81337875 1561.9714241 1093.55773544 C1518.07440545 1078.597877 1475.35407176 1060.55748378 1433.1788826 1041.30962753 C1432.05272537 1040.79609726 1430.92656815 1040.28256699 1429.76628494 1039.75347519 C1391.08330084 1022.0648877 1352.65862153 1003.43125542 1315.1788826 983.30962753 C1313.03189176 982.16222155 1310.88474347 981.01511015 1308.73747635 979.86822128 C1303.34294836 976.98471272 1297.9520668 974.09450006 1292.56344986 971.19996262 C1288.51587767 969.02611056 1284.46520276 966.85813486 1280.4132576 964.69244003 C1269.17817369 958.6783461 1258.00501982 952.57503967 1246.92937088 946.27178574 C1239.56459952 942.08113601 1232.15812924 937.9699551 1224.7413826 933.87212753 C1215.06785653 928.51887037 1205.48216333 923.03485451 1195.94987869 917.43438339 C1189.29486343 913.52837005 1182.596844 909.70893511 1175.8663826 905.93462753 C1166.30449144 900.56464446 1156.86283833 895.00719334 1147.44182205 889.39434433 C1139.6837836 884.77750269 1131.88465711 880.23934574 1124.0538826 875.74712753 C1114.57079821 870.30218538 1105.1687876 864.73688415 1095.80583572 859.08819199 C1086.42974155 853.43881532 1076.99169663 847.89885988 1067.5370369 842.38238144 C1060.95574089 838.53848841 1054.40102099 834.65569648 1047.87018204 830.72689438 C1043.48916495 828.09231262 1039.0978701 825.47579397 1034.69841385 822.87212753 C1034.07608871 822.50370743 1033.45376358 822.13528732 1032.81258011 821.75570297 C1031.53286182 820.99813809 1030.25312731 820.24060061 1028.97337723 819.48308945 C1017.87363362 812.91136307 1006.81257782 806.28271162 995.8038826 799.55962753 C985.87686938 793.49852328 975.85750181 787.6168807 965.76433182 781.836483 C956.15738774 776.32569294 946.66490143 770.6346404 937.1788826 764.91900253 C918.28592834 753.53726761 899.2159942 742.44804134 880.1788826 731.30962753 C879.11846756 730.68910507 878.05805252 730.06858261 876.96550369 729.42925644 C843.88170201 710.07795464 810.66019062 690.9652641 777.1788826 672.30962753 C776.08189041 671.69732285 774.98489822 671.08501816 773.85466385 670.45415878 C759.03526172 662.18326116 744.17109096 654.0025553 729.22966385 645.95415878 C726.05466474 644.24266758 722.88225696 642.52644036 719.7101326 640.80962753 C707.35901127 634.13218236 694.96401272 627.54935052 682.50310135 621.07915878 C678.56037854 619.03180068 674.62840717 616.96548235 670.70305252 614.88506699 C647.74716737 602.73041735 624.66979637 590.78363782 601.1632576 579.72759628 C597.78235681 578.12122588 594.41682885 576.48437703 591.0538826 574.84087753 C529.99571078 545.01535148 467.243676 517.9957461 403.1788826 495.30962753 C401.76658738 494.80493895 400.35448613 494.29970734 398.94255447 493.79400253 C360.75668264 480.12349708 322.30232647 468.02082196 283.1788826 457.30962753 C282.49377609 457.12170639 281.80866959 456.93378525 281.10280228 456.74016953 C206.52803079 436.35130499 130.24966479 424.49730981 53.1788826 419.30962753 C52.3804393 419.25414749 51.581996 419.19866745 50.75935745 419.1415062 C33.48588378 417.97565149 16.1702053 418.11197554 -1.1336174 418.12212753 C-2.72675705 418.1220714 -4.3198967 418.12201034 -5.91303635 418.12194443 C-28.78220644 418.1289851 -51.5756235 418.4343139 -74.39204025 420.13451767 C-77.18628224 420.33595192 -79.98157645 420.51712067 -82.77717209 420.69878769 C-99.43553711 421.81397251 -115.97075998 423.57607514 -132.53229904 425.67620468 C-134.61114356 425.9397009 -136.6902382 426.20115776 -138.76935959 426.46245956 C-163.37283908 429.56431434 -187.83561396 433.26590569 -212.21509933 437.82256699 C-214.77143667 438.30034229 -217.32868506 438.77298273 -219.88605881 439.24517441 C-259.91204095 446.67848689 -299.44052974 456.49647475 -338.60526657 467.56631088 C-342.76938966 468.7415824 -346.93937959 469.88358993 -351.1258049 470.97759628 C-362.93743246 474.06578892 -374.48369842 477.78000242 -386.04182053 481.69512558 C-394.08756987 484.41858778 -402.15597599 486.95672154 -410.3211174 489.29400253 C-416.67709614 491.13837136 -422.99546065 493.07871569 -429.06721115 495.72369003 C-433.3773208 497.59628622 -437.80925986 499.0561158 -442.2586174 500.55962753 C-472.84252003 511.07775345 -502.95816311 522.90665365 -532.8211174 535.30962753 C-533.50848984 535.5949736 -534.19586227 535.88031967 -534.90406418 536.17431259 C-570.66511332 551.03756218 -606.08195456 566.72837324 -641.01478195 583.44555283 C-643.78098921 584.76878973 -646.54937821 586.08745141 -649.31721115 587.40728378 C-655.49312721 590.35833242 -661.65825032 593.33144249 -667.8211174 596.30962753 C-669.13815635 596.94540773 -670.45521459 597.58114795 -671.77228928 598.2168541 C-702.10266365 612.83716223 -702.10266365 612.83716223 -732.05378342 628.21392441 C-736.91673417 630.7900863 -741.79484565 633.33489061 -746.6883049 635.85259628 C-747.29137466 636.16293304 -747.89444443 636.47326981 -748.51578903 636.79301071 C-749.12717728 637.10762756 -749.73856552 637.42224442 -750.36848068 637.74639511 C-761.14869717 643.29437043 -771.88320627 648.90724156 -782.50617599 654.75274277 C-789.29165478 658.48593651 -796.11574362 662.14333 -802.95118332 665.78396225 C-813.05631989 671.16889818 -823.09018784 676.66185287 -833.03889084 682.33160019 C-840.04565282 686.32112518 -847.09515353 690.22824056 -854.16273117 694.10848618 C-867.38209117 701.36770388 -880.50281992 708.78649767 -893.57873154 716.30060959 C-897.70039875 718.66867255 -901.82757854 721.02689546 -905.95783615 723.37994003 C-920.96596198 731.93203993 -935.91877996 740.57425242 -950.8211174 749.30962753 C-952.53576796 750.31403568 -954.25041884 751.31844329 -955.96508408 752.32282639 C-960.82054095 755.16712558 -965.67514339 758.01287546 -970.52871323 760.86039352 C-976.09364657 764.12525657 -981.66082158 767.3862201 -987.23127365 770.64165878 C-999.65674467 777.90596876 -1012.04780687 785.22088472 -1024.37556076 792.65044785 C-1032.25797274 797.39300637 -1040.18864636 802.0481257 -1048.1336174 806.68462753 C-1058.34129907 812.64227074 -1068.47328703 818.71165099 -1078.56003952 824.87157822 C-1088.02501972 830.64882837 -1097.56395411 836.28790578 -1107.14387131 841.87212753 C-1116.09416535 847.09213285 -1124.97817913 852.40990922 -1133.8211174 857.80962753 C-1146.24086833 865.39024583 -1158.76599246 872.77906745 -1171.33529282 880.10853195 C-1177.49780411 883.70213937 -1183.65036146 887.31263965 -1189.80295944 890.92318344 C-1193.38590475 893.02509599 -1196.97036627 895.12442103 -1200.55474472 897.2238884 C-1204.09978064 899.30048892 -1207.64360546 901.3791381 -1211.18664169 903.45914841 C-1213.98044621 905.09855046 -1216.77591294 906.7351139 -1219.5711174 908.37212753 C-1220.59568039 908.97436142 -1221.62024338 909.57659531 -1222.67585373 910.1970787 C-1224.07033737 911.01269272 -1224.07033737 911.01269272 -1225.4929924 911.84478378 C-1226.71647385 912.56226791 -1226.71647385 912.56226791 -1227.96467209 913.29424667 C-1229.8211174 914.30962753 -1229.8211174 914.30962753 -1230.8211174 914.30962753 C-1230.8211174 754.25962753 -1230.8211174 594.20962753 -1230.8211174 429.30962753 C-1217.9511174 421.88462753 -1217.9511174 421.88462753 -1204.8211174 414.30962753 C-1196.72187207 409.53437017 -1196.72187207 409.53437017 -1188.62971115 404.74712753 C-1169.50836715 393.41989994 -1150.30021347 382.24344045 -1131.03596115 371.16119003 C-1127.76426874 369.27688602 -1124.49542 367.38773647 -1121.2273674 365.49712753 C-1101.95811639 354.3524173 -1082.58553351 343.39989372 -1063.15461349 332.53985214 C-1058.10876322 329.71813383 -1053.06858199 326.88742389 -1048.04377365 324.02837753 C-1035.82822639 317.07885943 -1023.51899867 310.33113699 -1011.12971115 303.69634628 C-1006.37335993 301.14837791 -1001.63330312 298.5728295 -996.90314865 295.97661972 C-973.70320215 283.24472775 -950.24547625 270.98508308 -926.7195549 258.86822128 C-922.28038539 256.58169569 -917.84785071 254.28328217 -913.4226799 251.96978378 C-886.86295408 238.09584579 -860.09415455 224.56326851 -832.98078537 211.80181503 C-829.93811058 210.36487883 -826.90055294 208.91767981 -823.86408615 207.46769333 C-804.18304276 198.07248743 -784.38484789 188.99089904 -764.41999435 180.21522141 C-759.44390818 178.02767007 -754.47610178 175.82227041 -749.51252365 173.60650253 C-688.48097472 146.39730688 -626.26886711 121.9222207 -563.11317062 100.10186386 C-560.78017486 99.29547595 -558.44780641 98.48729461 -556.11555099 97.67876816 C-515.61330924 83.64554847 -515.61330924 83.64554847 -495.31403732 78.13433456 C-489.24539404 76.47163751 -483.31820304 74.51113665 -477.3601799 72.48540878 C-472.300136 70.80431252 -467.18712384 69.35499157 -462.04963303 67.93120956 C-459.39272047 67.1901382 -456.73983277 66.43536086 -454.0867424 65.68072128 C-443.39463844 62.6493135 -432.69475809 59.71850864 -421.89948654 57.07671738 C-416.77816663 55.81805748 -411.70328031 54.4484101 -406.6336174 52.99712753 C-361.81063222 40.31195305 -315.78466709 31.43080118 -269.91927719 23.53944016 C-266.05610109 22.87396005 -262.19489473 22.20014652 -258.33747482 21.50201035 C-249.29407737 19.86801189 -240.25155203 18.47676223 -231.1336174 17.30962753 C-228.50337012 16.96617564 -225.87316198 16.6224239 -223.2429924 16.27837753 C-221.97391037 16.11337753 -220.70482834 15.94837753 -219.39728928 15.77837753 C-215.41682074 15.25663398 -211.4393922 14.71539257 -207.46271896 14.16558456 C-204.8120094 13.79974449 -202.16042361 13.44086354 -199.5086174 13.08306503 C-196.58921233 12.68896582 -193.67120083 12.28828591 -190.75471115 11.8731041 C-127.5203645 2.87495549 -63.80082202 0.05376906 0 0 Z " fill="#D9892F" transform="translate(1230.821117401123,1256.690372467041)"/>
<path d="M0 0 C3.84244548 0.01073991 7.68442372 0.00000694 11.52685547 -0.01269531 C34.87585693 -0.02708965 58.15253743 1.14903021 81.28076172 4.44824219 C82.03575958 4.55334106 82.79075745 4.65843994 83.56863403 4.76672363 C166.40699818 16.34050732 246.30894136 41.79638197 423.07714844 118.67626953 C427.14619361 120.65026439 431.22902296 122.59432811 435.31396484 124.53515625 C452.90047663 132.89328195 470.31617052 141.5764106 487.51513672 150.70605469 C491.90821066 153.03725921 496.3205944 155.33005968 500.73535156 157.61987305 C511.14318992 163.02216935 521.46940151 168.55707515 531.74951172 174.19824219 C536.57247427 176.84440923 541.41214991 179.45852618 546.25537109 182.06738281 C557.0773097 187.90102951 567.8115355 193.87304808 578.49951172 199.94824219 C583.52904991 202.80578008 588.57779244 205.62764064 593.63110352 208.44287109 C603.97953589 214.2102712 614.25314874 220.08910083 624.47070312 226.08520508 C631.16079706 230.00572047 637.8927844 233.84256101 644.65576172 237.63574219 C654.21761092 243.005803 663.65930358 248.56317495 673.08032227 254.17602539 C680.83836072 258.79286703 688.63748721 263.33102398 696.46826172 267.82324219 C705.96104102 273.2737509 715.37280684 278.84451793 724.74487305 284.49975586 C732.67652336 289.27953577 740.65733276 293.96913812 748.65576172 298.63574219 C758.86257163 304.59249672 768.99300818 310.66209928 779.0791626 316.82067871 C788.00891008 322.27019962 796.99591842 327.61239222 806.03076172 332.88574219 C816.06965161 338.74512751 826.06581764 344.66854422 836.02490234 350.66308594 C848.09413063 357.92462291 860.21823034 365.09291621 872.34326172 372.26074219 C873.32456055 372.84098145 874.30585938 373.4212207 875.31689453 374.01904297 C879.89269219 376.72449314 884.46915535 379.42881213 889.04638672 382.13183594 C892.5578643 384.20556857 896.06823628 386.28115265 899.57763672 388.35839844 C920.28497307 400.61251405 941.02662497 412.80605405 961.88305664 424.80493164 C968.07739822 428.37005097 974.25627117 431.95988392 980.421875 435.57446289 C992.59929216 442.71133403 1004.87813203 449.65081323 1017.2109375 456.51513672 C1021.35114551 458.82242333 1025.48491866 461.14110085 1029.61865234 463.45996094 C1034.85768004 466.398042 1040.10019352 469.32987901 1045.34326172 472.26074219 C1046.43396973 472.87062988 1047.52467773 473.48051758 1048.6484375 474.10888672 C1064.03511782 482.70581086 1079.48826368 491.1665752 1095.02783203 499.48388672 C1098.41442056 501.29887872 1101.79714721 503.12090619 1105.17919922 504.94433594 C1119.9969522 512.92376672 1134.89201153 520.73649088 1149.85748291 528.43466187 C1154.16753258 530.65246913 1158.47162924 532.88152521 1162.77294922 535.11621094 C1185.44351305 546.8904471 1208.24803571 558.34020422 1231.34326172 569.26074219 C1232.5129248 569.81600586 1233.68258789 570.37126953 1234.88769531 570.94335938 C1288.36920197 596.32758598 1342.82861894 619.68238053 1398.34326172 640.26074219 C1399.01190247 640.5086853 1399.68054321 640.75662842 1400.3694458 641.01208496 C1484.52367033 672.17297112 1571.05770603 696.70861111 1758.34326172 721.26074219 C1759.00136841 721.30171021 1759.6594751 721.34267822 1760.33752441 721.3848877 C1778.36729454 722.49818537 1796.41147479 722.50472733 1814.46826172 722.51074219 C1815.68621052 722.5116259 1815.68621052 722.5116259 1816.92876434 722.51252747 C1846.15860862 722.52744794 1875.20130883 721.69488947 1904.34326172 719.26074219 C1905.6645105 719.15182648 1905.6645105 719.15182648 1907.01245117 719.04071045 C2002.24288208 711.1240546 2096.09809374 691.38430388 2187.34326172 663.26074219 C2188.36379639 662.94621094 2189.38433105 662.63167969 2190.43579102 662.30761719 C2258.55988589 641.25693899 2325.19491039 615.91587133 2390.41589355 587.11047363 C2392.45066865 586.21338899 2394.48709998 585.32015263 2396.52392578 584.42773438 C2413.37620235 577.04164628 2430.14631278 569.50136405 2446.78076172 561.63574219 C2447.45689514 561.31609497 2448.13302856 560.99644775 2448.82965088 560.66711426 C2454.0087429 558.21473598 2459.17683893 555.73967716 2464.34326172 553.26074219 C2465.36210449 552.7726709 2466.38094727 552.28459961 2467.43066406 551.78173828 C2485.36109227 543.18610256 2503.19777062 534.414056 2520.9765625 525.50927734 C2524.32834119 523.83051147 2527.68195577 522.15544875 2531.03602505 520.48126507 C2544.86347161 513.57752883 2558.66003455 506.62778243 2572.29663086 499.35198975 C2574.33080048 498.26738642 2576.36774082 497.18818682 2578.40576172 496.11083984 C2600.68288162 484.33367994 2622.94011779 472.52415427 2644.84375 460.06225586 C2651.28216581 456.40479081 2657.76587075 452.84235803 2664.28076172 449.32324219 C2673.09312895 444.55678966 2681.74864535 439.55404613 2690.38208008 434.47192383 C2696.97063531 430.60709914 2703.61952835 426.88470615 2710.34326172 423.26074219 C2720.06504216 418.01499513 2729.60834995 412.49672122 2739.13232422 406.90136719 C2745.55529647 403.12794748 2752.01047421 399.41166095 2758.46826172 395.69824219 C2769.24421541 389.4934455 2779.96463044 383.1998495 2790.65771484 376.85351562 C2795.21606289 374.15000084 2799.77999103 371.45593655 2804.34326172 368.76074219 C2806.18963537 367.66962932 2808.03598958 366.57848357 2809.88232422 365.48730469 C2813.41824011 363.39784287 2816.95471108 361.30932587 2820.49169922 359.22167969 C2834.68642541 350.84178951 2848.86079601 342.4278071 2863.03237915 334.00886536 C2867.95526831 331.08454096 2872.8794569 328.16241323 2877.80419922 325.24121094 C2889.75903306 318.14920367 2901.71235751 311.05558206 2913.62280273 303.88916016 C2922.10291326 298.79251481 2930.61619254 293.75182791 2939.12637329 288.70562744 C2948.11162005 283.37712602 2957.08113503 278.02394561 2966.03076172 272.63574219 C2976.82014198 266.14404989 2987.67468548 259.76764328 2998.54403687 253.41125488 C2999.14035919 253.06252319 2999.73668152 252.7137915 3000.35107422 252.35449219 C3000.94248199 252.00866089 3001.53388977 251.66282959 3002.14321899 251.30651855 C3007.90782445 247.93385359 3013.65809555 244.53716774 3019.40576172 241.13574219 C3022.71810417 239.1771423 3026.03066094 237.21890512 3029.34326172 235.26074219 C3030.3709668 234.65286865 3030.3709668 234.65286865 3031.41943359 234.03271484 C3033.16351203 233.00224475 3034.90953722 231.97507138 3036.65576172 230.94824219 C3037.55939453 230.41585937 3038.46302734 229.88347656 3039.39404297 229.33496094 C3041.34326172 228.26074219 3041.34326172 228.26074219 3042.34326172 228.26074219 C3042.49729934 274.31905268 3042.64058847 320.37738588 3042.72434998 366.43588257 C3042.72559249 367.1173672 3042.726835 367.79885182 3042.72811517 368.5009875 C3042.75505021 383.31084482 3042.77998201 398.12070488 3042.80284968 412.93056903 C3042.81407589 420.19313387 3042.82574485 427.45569796 3042.83764648 434.71826172 C3042.83882332 435.44098103 3042.84000015 436.16370034 3042.84121264 436.90832023 C3042.87957714 460.34136176 3042.94718793 483.7742082 3043.02993671 507.20713149 C3043.11480489 531.28391626 3043.17022479 555.36059302 3043.18849663 579.43752484 C3043.19109009 582.83681264 3043.19402082 586.23610008 3043.19715691 589.63538742 C3043.19776371 590.30442772 3043.19837052 590.97346801 3043.19899572 591.66278225 C3043.20897917 601.77250759 3043.24491732 611.88193402 3043.29483223 621.99153519 C3043.35139826 633.48976104 3043.37802303 644.98754623 3043.36477412 656.48591287 C3043.35899288 662.35626307 3043.36803257 668.22563281 3043.41611099 674.09580994 C3043.45977921 679.46657418 3043.46220815 684.83569508 3043.43135177 690.2065336 C3043.42753613 692.15282464 3043.43906687 694.09921654 3043.46721036 696.04530783 C3043.6658276 710.62316483 3043.6658276 710.62316483 3040.37480247 714.69805312 C3038.06229688 716.27346667 3035.95954575 717.29612724 3033.34326172 718.26074219 C3032.33368408 718.87183838 3031.32410645 719.48293457 3030.28393555 720.11254883 C3029.3818335 720.6268042 3028.47973145 721.14105957 3027.55029297 721.67089844 C3026.00414307 722.55660522 3026.00414307 722.55660522 3024.42675781 723.46020508 C3023.3473291 724.07500732 3022.26790039 724.68980957 3021.15576172 725.32324219 C3018.83099883 726.65564018 3016.50666444 727.98874941 3014.18310547 729.32324219 C3013.60264465 729.65634903 3013.02218384 729.98945587 3012.4241333 730.33265686 C3006.99565976 733.45175529 3001.60258666 736.62871683 2996.21826172 739.82324219 C2959.20014364 761.76698927 2921.84683672 783.15818481 2884.34326172 804.26074219 C2883.3688916 804.80907715 2882.39452148 805.35741211 2881.390625 805.92236328 C2858.91595009 818.56049706 2836.37223878 831.07122368 2813.64892578 843.25732422 C2807.84333019 846.37120233 2802.05438617 849.5118931 2796.28369141 852.68994141 C2784.50136605 859.17219064 2772.57155707 865.34821225 2760.61026001 871.49119568 C2759.96269745 871.82377884 2759.31513489 872.156362 2758.64794922 872.49902344 C2758.0091684 872.8270546 2757.37038757 873.15508575 2756.71224976 873.49305725 C2751.54788594 876.14825921 2746.40978306 878.85058623 2741.28076172 881.57324219 C2733.75453925 885.56274658 2726.14734871 889.37695887 2718.51708984 893.16308594 C2712.72234741 896.04628413 2706.98792083 899.02103905 2701.28076172 902.07324219 C2690.43284341 907.84724599 2679.33969094 913.11408714 2668.25758362 918.41845703 C2663.59561743 920.65255294 2658.94723378 922.91337584 2654.30419922 925.18652344 C2637.29680608 933.50627812 2620.18758602 941.54731381 2602.91618347 949.30418396 C2598.34861619 951.35566973 2593.78679781 953.41938201 2589.2286377 955.49168396 C2499.86718499 996.11553939 2408.08784932 1032.20768744 2294.51092529 1066.80502319 C2289.74838225 1068.23230824 2284.99016699 1069.67235993 2280.23730469 1071.1315918 C2278.70864021 1071.60019371 2278.70864021 1071.60019371 2277.14909363 1072.07826233 C2275.21008654 1072.67335626 2273.27165287 1073.27032351 2271.3339386 1073.86961365 C2262.81092471 1076.48292702 2254.19358879 1078.62793168 2245.53173828 1080.72412109 C2237.9838147 1082.57489486 2230.4922055 1084.65970149 2223.00732422 1086.74902344 C2203.94693659 1092.02656737 2184.71311335 1096.45094387 2165.42205811 1100.79199219 C2163.59719634 1101.2034822 2161.77314048 1101.6185428 2159.94921875 1102.03417969 C2129.9133329 1108.87767186 2099.50239336 1114.03257903 2069.1289978 1119.11801147 C2064.67990998 1119.86371589 2060.23445803 1120.62585495 2055.79248047 1121.41308594 C2037.07146439 1124.7045346 2018.21070603 1126.99389138 1999.34326172 1129.26074219 C1998.23709503 1129.39512695 1998.23709503 1129.39512695 1997.10858154 1129.53222656 C1973.53864528 1132.39220229 1949.89223685 1134.20952641 1926.21826172 1135.94824219 C1925.47574284 1136.00290649 1924.73322395 1136.0575708 1923.9682045 1136.1138916 C1919.6098354 1136.43434795 1915.25121198 1136.75099029 1910.89221001 1137.06272316 C1908.93018582 1137.20317901 1906.96827135 1137.3451649 1905.00636292 1137.48722839 C1901.11959168 1137.76110447 1897.23214098 1138.01900272 1893.34326172 1138.26074219 C1892.60635857 1138.30683058 1891.86945541 1138.35291897 1891.11022186 1138.40040398 C1877.17408722 1139.24714526 1863.27116078 1139.42396634 1849.31201172 1139.42871094 C1847.02461732 1139.43194125 1844.73722311 1139.43530649 1842.4498291 1139.438797 C1837.66951014 1139.44474415 1832.88920911 1139.44664194 1828.10888672 1139.44604492 C1823.30806653 1139.4459644 1818.50734326 1139.45279521 1813.70654297 1139.46655273 C1775.21188084 1139.57504302 1736.74965536 1139.12192414 1698.40576172 1135.38574219 C1696.54130622 1135.21133532 1694.67680266 1135.03744173 1692.81225586 1134.86401367 C1687.32070247 1134.34819533 1681.83179361 1133.80765172 1676.34326172 1133.26074219 C1675.09289124 1133.13732452 1675.09289124 1133.13732452 1673.81726074 1133.01141357 C1584.74272116 1124.21166658 1496.22359413 1106.87701348 1363.13916016 1069.12646484 C1360.15178477 1068.20145322 1357.15827765 1067.29845281 1354.16357422 1066.39746094 C1284.51588562 1045.30926336 1216.1652596 1019.19873789 1149.45825195 990.18017578 C1147.18190125 989.19059518 1144.9042422 988.20406554 1142.62646484 987.21777344 C1108.82466519 972.5692323 1075.33972787 957.28095826 1042.22509766 941.13793945 C1039.27167384 939.70455058 1036.30939181 938.29054948 1033.34423828 936.8815918 C1019.34329507 930.22600764 1005.44115457 923.38753846 991.58056641 916.44458008 C988.08368737 914.69344764 984.58467443 912.94663391 981.08544922 911.20019531 C968.81303578 905.06601648 956.59640462 898.84550512 944.48480225 892.39944458 C941.66890125 890.90217046 938.84793466 889.41458578 936.02696228 887.92689514 C908.92147586 873.62871345 881.94269833 859.11339396 855.13934326 844.25610352 C853.36141241 843.27080103 851.58310821 842.2861758 849.8046875 841.30175781 C834.27184174 832.70162656 818.77699055 824.03756102 803.34326172 815.26074219 C802.24369141 814.63554687 801.14412109 814.01035156 800.01123047 813.36621094 C786.72230713 805.80652074 773.46592416 798.19443156 760.27001953 790.47314453 C753.08215737 786.26854218 745.8731713 782.10188836 738.65576172 777.94824219 C716.0446122 764.92430153 693.57855401 751.65418119 671.14343262 738.32977295 C668.63842447 736.84217487 666.13309326 735.35512127 663.6277771 733.86804199 C657.60011694 730.29019868 651.57304625 726.71136446 645.54638672 723.13183594 C640.05798489 719.87202906 634.56826129 716.61445989 629.07763672 713.35839844 C615.86071 705.51928262 602.65678507 697.66022463 589.48632812 689.74316406 C579.26901453 683.60586898 569.012745 677.5349406 558.75517273 671.46525574 C552.29495915 667.64178664 545.8408134 663.80810932 539.38665771 659.97442627 C535.32042342 657.55926844 531.25372106 655.14489885 527.18707275 652.73043823 C526.5314032 652.34115143 525.87573364 651.95186462 525.20019531 651.55078125 C524.55516052 651.16780884 523.91012573 650.78483643 523.24554443 650.39025879 C521.41817644 649.30522423 519.59091196 648.22001556 517.76367188 647.13476562 C500.32687348 636.78034871 482.84929612 626.4974904 465.34326172 616.26074219 C464.29009766 615.64457031 463.23693359 615.02839844 462.15185547 614.39355469 C440.33803633 601.63400275 418.48068418 588.96176985 396.40966797 576.65136719 C391.55863954 573.94460598 386.72148355 571.21436111 381.89013672 568.47265625 C322.10602967 534.55185529 261.16529224 501.65312737 198.17449951 474.06567383 C196.32856875 473.2542838 194.48606418 472.43557628 192.64453125 471.61425781 C154.3900098 454.55535866 114.92162787 438.85047747 74.34326172 428.26074219 C73.40546875 428.01130859 72.46767578 427.761875 71.50146484 427.50488281 C60.58119624 424.61233292 49.64383946 421.99103818 38.53076172 419.94824219 C37.66652588 419.78888184 36.80229004 419.62952148 35.91186523 419.46533203 C24.68605652 417.49688186 13.54126482 417.02071272 2.15576172 417.01074219 C1.10405289 417.00973007 1.10405289 417.00973007 0.03109741 417.00869751 C-13.05653936 417.02852081 -25.73943566 418.15934337 -38.65673828 420.26074219 C-39.79175781 420.43766602 -40.92677734 420.61458984 -42.09619141 420.796875 C-66.40895892 424.60767424 -90.09534726 430.19833033 -113.65673828 437.26074219 C-114.69652832 437.56818359 -115.73631836 437.875625 -116.80761719 438.19238281 C-150.51091352 448.1924245 -183.2461246 460.68734646 -215.65673828 474.26074219 C-216.31399902 474.53597717 -216.97125977 474.81121216 -217.6484375 475.0947876 C-248.61034058 488.08850303 -278.99408594 502.39545522 -309.15673828 517.13574219 C-310.11627411 517.60389343 -311.07580994 518.07204468 -312.06442261 518.55438232 C-325.57916803 525.15687967 -338.9522411 532.00340535 -352.2645874 539.00445557 C-355.22449305 540.55891013 -358.191389 542.0992289 -361.16064453 543.63574219 C-372.2009692 549.36047124 -383.16049824 555.21535768 -394.06298828 561.19824219 C-398.88595083 563.84440923 -403.72562647 566.45852618 -408.56884766 569.06738281 C-419.39078626 574.90102951 -430.12501206 580.87304808 -440.81298828 586.94824219 C-445.84211426 589.80554588 -450.8904264 592.62720339 -455.94335938 595.44213867 C-466.17260523 601.14328275 -476.33190386 606.94848247 -486.43261719 612.87426758 C-493.49121262 617.01137286 -500.5851675 621.08318187 -507.69708252 625.12771606 C-519.81336562 632.01962147 -531.83035337 639.06527741 -543.80908203 646.19433594 C-550.9058041 650.41602286 -558.02945851 654.59091919 -565.15673828 658.76074219 C-577.82035195 666.17293712 -590.4519365 673.63807955 -603.06835938 681.13037109 C-606.22874565 683.00702457 -609.39024837 684.88179009 -612.55198669 686.75616455 C-625.43768236 694.39541746 -638.31794903 702.04281368 -651.15673828 709.76074219 C-663.89339065 717.41722472 -676.67223914 725.00187246 -689.454422 732.58198547 C-694.25725958 735.43021324 -699.05895046 738.28036513 -703.85986328 741.13183594 C-704.53223526 741.53118347 -705.20460724 741.93053101 -705.89735413 742.34197998 C-707.24896254 743.14475482 -708.60057082 743.94752988 -709.95217896 744.75030518 C-723.82508418 752.98946127 -737.70214844 761.22157812 -751.5859375 769.44238281 C-753.57991129 770.62310445 -755.57373514 771.80407936 -757.56738281 772.98535156 C-770.89333913 780.88050054 -784.25649523 788.70984578 -797.64208984 796.50341797 C-800.60466638 798.230388 -803.5647086 799.96161689 -806.52392578 801.69433594 C-820.76524391 810.02872351 -835.07415585 818.24014755 -849.41064453 826.40917969 C-852.34896923 828.08519161 -855.28485156 829.76534791 -858.21923828 831.44824219 C-871.64589808 839.14680049 -885.13954477 846.72242313 -898.65673828 854.26074219 C-899.76388184 854.87884766 -900.87102539 855.49695312 -902.01171875 856.13378906 C-915.93610414 863.90497952 -929.90015587 871.5954039 -943.93408203 879.16699219 C-948.44080328 881.59921497 -952.9345415 884.05409644 -957.42382812 886.51831055 C-1009.13040328 914.86931323 -1061.68756551 942.36776673 -1115.37890625 966.75634766 C-1118.93392803 968.38796126 -1122.4711351 970.05537777 -1126.00439453 971.73339844 C-1153.56073178 984.80798287 -1181.48739155 997.04389282 -1209.59423828 1008.88574219 C-1210.58896652 1009.30632904 -1210.58896652 1009.30632904 -1211.60379028 1009.7354126 C-1213.4413241 1010.51098849 -1215.28138256 1011.28057494 -1217.12158203 1012.04980469 C-1218.6625354 1012.6948999 -1218.6625354 1012.6948999 -1220.23461914 1013.35302734 C-1222.65673828 1014.26074219 -1222.65673828 1014.26074219 -1224.65673828 1014.26074219 C-1224.65673828 863.12074219 -1224.65673828 711.98074219 -1224.65673828 556.26074219 C-1199.79361591 542.69903908 -1199.79361591 542.69903908 -1189.00735474 537.20425415 C-1176.67544068 530.91699327 -1164.47350147 524.42414741 -1152.35205078 517.73925781 C-1148.50016415 515.62630261 -1144.63085265 513.54610902 -1140.76269531 511.46313477 C-1130.94583311 506.17355805 -1121.19618899 500.7801264 -1111.50146484 495.27001953 C-1104.18431568 491.11339314 -1096.83246824 487.02259107 -1089.46923828 482.94824219 C-1070.37397994 472.36606985 -1051.44030989 461.50747706 -1032.59790039 450.48144531 C-1025.26053512 446.18877905 -1017.89988724 441.93781513 -1010.53173828 437.69824219 C-1001.72550183 432.62743401 -992.95113496 427.50730686 -984.21069336 422.32397461 C-978.93787523 419.19763028 -973.65766791 416.08447264 -968.36767578 412.98730469 C-967.73503311 412.61687042 -967.10239044 412.24643616 -966.45057678 411.86477661 C-963.35682094 410.05368624 -960.26238456 408.24376818 -957.16723633 406.43505859 C-950.53750662 402.55740945 -943.93393277 398.63926425 -937.35215759 394.68075562 C-931.01083867 390.86786129 -924.64693579 387.09348294 -918.28149414 383.32104492 C-906.88858791 376.56819915 -895.51355941 369.7869709 -884.16430664 362.9609375 C-878.44668759 359.52533255 -872.71968195 356.10624612 -866.98095703 352.70605469 C-866.31815735 352.31333374 -865.65535767 351.92061279 -864.97247314 351.51599121 C-862.24614084 349.90081839 -859.51972448 348.28578761 -856.79315186 346.67102051 C-847.24875259 341.01619636 -837.74978109 335.29235189 -828.28173828 329.51074219 C-818.35186991 323.44806083 -808.33027352 317.56372887 -798.23339844 311.78320312 C-790.81917271 307.53137394 -783.47297287 303.17883866 -776.15673828 298.76074219 C-765.53512407 292.35051363 -754.81674989 286.12290057 -744.05908203 279.94433594 C-737.90843483 276.41122274 -731.77998286 272.84108263 -725.65673828 269.26074219 C-713.01878485 261.87743475 -700.34652548 254.55456804 -687.65673828 247.26074219 C-686.52187988 246.6081543 -685.38702148 245.95556641 -684.21777344 245.28320312 C-668.25820815 236.11017475 -652.22823231 227.07205918 -636.11474609 218.17138672 C-633.16094806 216.53933197 -630.20855831 214.90478427 -627.25683594 213.26898193 C-610.78877733 204.14408833 -594.2652724 195.1280104 -577.65673828 186.26074219 C-576.39664463 185.5870815 -575.13655356 184.913416 -573.87646484 184.23974609 C-524.89524372 158.0711274 -475.41699818 132.66008233 -424.63818359 110.14111328 C-422.60506836 109.23778485 -420.57399595 108.33000218 -418.54345703 107.42089844 C-372.05335973 86.61093555 -324.90304081 67.62282389 -276.65673828 51.26074219 C-275.9098877 51.00699829 -275.16303711 50.75325439 -274.39355469 50.49182129 C-208.27768597 28.06808287 -139.78845012 11.0577408 -70.28173828 3.63574219 C-69.24484863 3.52447998 -68.20795898 3.41321777 -67.13964844 3.29858398 C-63.31487745 2.91461575 -59.48748341 2.57807296 -55.65673828 2.26074219 C-54.67193481 2.17816162 -53.68713135 2.09558105 -52.67248535 2.01049805 C-35.09969245 0.57289465 -17.62990394 -0.05828067 0 0 Z " fill="#6E1519" transform="translate(1224.65673828125,2090.7392578125)"/>
</svg>
